# xmcd
#
# Track frame offsets:
#	150
#	16439
#	28457
#	42803
#	55921
#	66396
#	78891
#	91744
#	104469
#	115446
#	130023
#	143555
#
# Disc length: 2055 seconds
#
# Revision: 0
# Processed by: cddbd v1.5.2PL0 Copyright (c) Steve Scherf et al.
# Submitted via: EasyCDDAExtractor 16.0.6.1
#
DISCID=9f08050c
DTITLE=Θάλεια - Θάλεια-LP 1974
DYEAR=1974
DGENRE=Λαϊκή
TTITLE0=Θα κρατήσω της αγάπης το δικαίωμα [Κ. Ξενάκης-Η. Φωτεινάκης]
TTITLE1=Η Θεσσαλονικιά [Σ. Παπαβασιλείου-Μ. Μπιζάνη]
TTITLE2=Απονιά και καταφρόνια [Γ. Μανισαλής-Κ. Ψυχογιός
TTITLE3=Τον είδα κι απόψε [Γ. Μανισαλής-Κ. Ψυχογιός]
TTITLE4=Τα δικαιώματα [Γ. Κατσαρός-Πυθαγόρας]
TTITLE5=Εσύ δεν ήσουνα για μένα [Γ. Μανισαλής-Κ. Ψυχογιός]
TTITLE6=Ώρα καλή [Γ. Μανισαλής-Κ. Ψυχογιός]
TTITLE7=Τώρα μού φέρεσαι σκληρά [Γ. Μαριωλάς-Σ. Τηλιακού]
TTITLE8=Παραμερίστε δάκρυα [Σ. Παπαβασιλείου-Μ. Μπιζάνη]
TTITLE9=Πριν γνωρίσω εσένα [Γ. Μανισαλής-Κ. Ψυχογιός]
TTITLE10=Ένοχο δάκρυ μου [Σ. Παπαβασιλείου-Μ. Μπιζάνη]
TTITLE11=Με απογοήτεψες [Γ. Κατσαρός-Πυθαγόρας]
EXTD=
EXTT0=
EXTT1=
EXTT2=
EXTT3=
EXTT4=
EXTT5=
EXTT6=
EXTT7=
EXTT8=
EXTT9=
EXTT10=
EXTT11=
PLAYORDER=
